name Run_200 02_newCOP3_v24.mot
datacolumns 19
datarows 114
range 1.366667 1.484375
DataType=double
version=3
OpenSimVersion=4.3-2021-08-27-4bc7ad9
endheader
time	R_ground_force_vx	R_ground_force_vy	R_ground_force_vz	R_ground_force_px	R_ground_force_py	R_ground_force_pz	L_ground_force_vx	L_ground_force_vy	L_ground_force_vz	L_ground_force_px	L_ground_force_py	L_ground_force_pz	R_ground_torque_x	R_ground_torque_y	R_ground_torque_z	L_ground_torque_x	L_ground_torque_y	L_ground_torque_z
1.366667	0	0	0	0	0	0	37.855671	1208.862915	35.624249	0.784697	0	-0.289757	0	0	0	0	-2.537127	0
1.367708	0	0	0	0	0	0	39.901573	1196.556885	34.458927	0.783338	0	-0.289797	0	0	0	0	-2.170272	0
1.36875	0	0	0	0	0	0	41.971737	1184.24646	33.292416	0.781975	0	-0.289821	0	0	0	0	-1.820059	0
1.369792	0	0	0	0	0	0	44.062832	1171.938354	32.129993	0.7806070000000001	0	-0.28983	0	0	0	0	-1.490489	0
1.370833	0	0	0	0	0	0	46.171345	1159.637085	30.976181	0.779235	0	-0.289822	0	0	0	0	-1.184988	0
1.371875	0	0	0	0	0	0	48.293587	1147.345215	29.834654	0.777859	0	-0.289795	0	0	0	0	-0.906331	0
1.372917	0	0	0	0	0	0	50.425697	1135.063599	28.708204	0.776479	0	-0.289751	0	0	0	0	-0.656583	0
1.373958	0	0	0	0	0	0	52.563644	1122.791504	27.598719	0.775096	0	-0.289689	0	0	0	0	-0.437063	0
1.375	0	0	0	0	0	0	54.703228	1110.526611	26.507172	0.773711	0	-0.289609	0	0	0	0	-0.248322	0
1.376042	0	0	0	0	0	0	56.84008	1098.265259	25.433655	0.772322	0	-0.289512	0	0	0	0	-0.09014800000000001	0
1.377083	0	0	0	0	0	0	58.969692	1086.00293	24.37743	0.770931	0	-0.289398	0	0	0	-0	0.038416	-0
1.378125	0	0	0	0	0	0	61.087418	1073.734131	23.336996	0.769537	0	-0.289268	0	0	0	-0	0.139028	-0
1.379167	0	0	0	0	0	0	63.188503	1061.452759	22.310184	0.768141	0	-0.289124	0	0	0	-0	0.213988	-0
1.380208	0	0	0	0	0	0	65.268135	1049.15271	21.294262	0.766743	0	-0.288966	0	0	0	-0	0.266165	-0
1.38125	0	0	0	0	0	0	67.321487	1036.827515	20.286062	0.765344	0	-0.288797	0	0	0	-0	0.298907	-0
1.382292	0	0	0	0	0	0	69.34375799999999	1024.470947	19.282108	0.763943	0	-0.288619	0	0	0	-0	0.31594	-0
1.383333	0	0	0	0	0	0	71.330231	1012.077148	18.278755	0.762541	0	-0.288432	0	0	0	-0	0.321262	-0
1.384375	0	0	0	0	0	0	73.276352	999.6410519999999	17.272331	0.761138	0	-0.288238	0	0	0	-0	0.319027	-0
1.385417	0	0	0	0	0	0	75.177773	987.15802	16.259281	0.759735	0	-0.28804	0	0	0	-0	0.313427	-0
1.386458	0	0	0	0	0	0	77.030411	974.6245730000001	15.236293	0.758333	0	-0.28784	0	0	0	-0	0.308582	-0
1.3875	0	0	0	0	0	0	78.830482	962.038269	14.200427	0.756931	0	-0.287639	0	0	0	-0	0.308419	-0
1.388542	0	0	0	0	0	0	80.57456999999999	949.397522	13.149233	0.75553	0	-0.287439	0	0	0	-0	0.316575	-0
1.389583	0	0	0	0	0	0	82.259636	936.702271	12.080846	0.754129	0	-0.287241	0	0	0	-0	0.336297	-0
1.390625	0	0	0	0	0	0	83.88304100000001	923.953491	10.994066	0.75273	0	-0.287047	0	0	0	-0	0.370356	-0
1.391667	0	0	0	0	0	0	85.442543	911.15332	9.888429	0.751333	0	-0.286858	0	0	0	-0	0.42098	-0
1.392708	0	0	0	0	0	0	86.936333	898.305298	8.764236	0.749936	0	-0.286675	0	0	0	-0	0.489799	-0
1.39375	0	0	0	0	0	0	88.362976	885.41394	7.622586	0.74854	0	-0.286498	0	0	0	-0	0.577801	-0
1.394792	0	0	0	0	0	0	89.721413	872.4849850000001	6.465364	0.7471449999999999	0	-0.286329	0	0	0	-0	0.685319	-0
1.395833	0	0	0	0	0	0	91.01095599999999	859.5251459999999	5.295225	0.7457510000000001	0	-0.286168	0	0	0	-0	0.812021	-0
1.396875	0	0	0	0	0	0	92.231224	846.542114	4.115546	0.744356	0	-0.286014	0	0	0	-0	0.956931	-0
1.397917	0	0	0	0	0	0	93.382133	833.544312	2.930367	0.74296	0	-0.285867	0	0	0	-0	1.118454	-0
1.398958	0	0	0	0	0	0	94.46384399999999	820.541016	1.744307	0.741563	0	-0.285726	0	0	0	-0	1.294427	-0
1.4	0	0	0	0	0	0	95.47673	807.5419920000001	0.562472	0.740163	0	-0.285592	0	0	0	-0	1.482182	-0
1.401042	0	0	0	0	0	0	96.421333	794.557495	-0.609656	0.73876	0	-0.285463	0	0	0	-0	1.678617	-0
1.402083	0	0	0	0	0	0	97.29830200000001	781.598022	-1.766332	0.737354	0	-0.285338	0	0	0	-0	1.880284	-0
1.403125	0	0	0	0	0	0	98.108345	768.6741940000001	-2.901676	0.735944	0	-0.285215	0	0	0	-0	2.083479	-0
1.404167	0	0	0	0	0	0	98.85219600000001	755.796753	-4.009793	0.73453	0	-0.285094	0	0	0	-0	2.284345	-0
1.405208	0	0	0	0	0	0	99.53053300000001	742.976196	-5.084904	0.73311	0	-0.284973	0	0	0	-0	2.478969	-0
1.40625	0	0	0	0	0	0	100.143929	730.222717	-6.121467	0.7316859999999999	0	-0.28485	0	0	0	-0	2.663487	-0
1.407292	0	0	0	0	0	0	100.692833	717.545959	-7.114293	0.730257	0	-0.284725	0	0	0	-0	2.834182	-0
1.408333	0	0	0	0	0	0	101.177505	704.9552	-8.058648	0.728823	0	-0.284595	0	0	0	-0	2.987577	-0
1.409375	0	0	0	0	0	0	101.598	692.458557	-8.950355999999999	0.7273849999999999	0	-0.28446	0	0	0	-0	3.120526	-0
1.410417	0	0	0	0	0	0	101.95414	680.06366	-9.785871	0.725943	0	-0.284318	0	0	0	-0	3.230285	-0
1.411458	0	0	0	0	0	0	102.245514	667.776794	-10.562341	0.724498	0	-0.284169	0	0	0	-0	3.314586	-0
1.4125	0	0	0	0	0	0	102.471497	655.603333	-11.277659	0.72305	0	-0.284011	0	0	0	-0	3.371681	-0
1.413542	0	0	0	0	0	0	102.631256	643.547424	-11.93049	0.721601	0	-0.283844	0	0	0	-0	3.400389	-0
1.414583	0	0	0	0	0	0	102.723793	631.611816	-12.520274	0.720151	0	-0.283668	0	0	0	-0	3.400113	-0
1.415625	0	0	0	0	0	0	102.747978	619.7981569999999	-13.047225	0.7187	0	-0.283483	0	0	0	-0	3.370854	-0
1.416667	0	0	0	0	0	0	102.702591	608.106689	-13.512296	0.7172500000000001	0	-0.283288	0	0	0	-0	3.313199	-0
1.417708	0	0	0	0	0	0	102.586388	596.536621	-13.917137	0.715801	0	-0.283085	0	0	0	-0	3.228305	-0
1.41875	0	0	0	0	0	0	102.398132	585.085693	-14.264037	0.714354	0	-0.282873	0	0	0	-0	3.117858	-0
1.419792	0	0	0	0	0	0	102.136658	573.750916	-14.555847	0.71291	0	-0.282654	0	0	0	-0	2.984025	-0
1.420833	0	0	0	0	0	0	101.800903	562.5280760000001	-14.795896	0.71147	0	-0.282428	0	0	0	-0	2.829396	-0
1.421875	0	0	0	0	0	0	101.389977	551.4123540000001	-14.987895	0.710033	0	-0.282197	0	0	0	-0	2.656912	-0
1.422917	0	0	0	0	0	0	100.903206	540.398254	-15.135838	0.708602	0	-0.281964	0	0	0	-0	2.469785	-0
1.423958	0	0	0	0	0	0	100.340141	529.47998	-15.243896	0.707176	0	-0.281728	0	0	0	-0	2.27142	-0
1.425	0	0	0	0	0	0	99.70066799999999	518.651428	-15.316311	0.705757	0	-0.281493	0	0	0	-0	2.065321	-0
1.426042	0	0	0	0	0	0	98.98498499999999	507.906647	-15.357296	0.704344	0	-0.28126	0	0	0	-0	1.855008	-0
1.427083	0	0	0	0	0	0	98.19368	497.239868	-15.370929	0.70294	0	-0.28103	0	0	0	-0	1.643926	-0
1.428125	0	0	0	0	0	0	97.32777400000001	486.645935	-15.361067	0.7015439999999999	0	-0.280807	0	0	0	-0	1.435366	-0
1.429167	0	0	0	0	0	0	96.388718	476.12027	-15.331259	0.700157	0	-0.280592	0	0	0	-0	1.232382	-0
1.430208	0	0	0	0	0	0	95.378471	465.659302	-15.284678	0.69878	0	-0.280387	0	0	0	-0	1.037725	-0
1.43125	0	0	0	0	0	0	94.29948400000001	455.260437	-15.224054	0.697414	0	-0.280194	0	0	0	-0	0.853777	-0
1.432292	0	0	0	0	0	0	93.154709	444.922302	-15.151639	0.696058	0	-0.280013	0	0	0	-0	0.682507	-0
1.433333	0	0	0	0	0	0	91.947586	434.644745	-15.069169	0.6947140000000001	0	-0.279846	0	0	0	-0	0.525423	-0
1.434375	0	0	0	0	0	0	90.68203699999999	424.428894	-14.97785	0.693381	0	-0.279694	0	0	0	-0	0.383556	-0
1.435417	0	0	0	0	0	0	89.36237300000001	414.27713	-14.878359	0.692062	0	-0.279557	0	0	0	-0	0.257437	-0
1.436458	0	0	0	0	0	0	87.993286	404.193085	-14.770859	0.690755	0	-0.279436	0	0	0	-0	0.147104	-0
1.4375	0	0	0	0	0	0	86.579742	394.181427	-14.655029	0.689461	0	-0.27933	0	0	0	-0	0.052113	-0
1.438542	0	0	0	0	0	0	85.126892	384.247803	-14.530104	0.688181	0	-0.279239	0	0	0	0	-0.028439	0
1.439583	0	0	0	0	0	0	83.64001500000001	374.39859	-14.394928	0.686916	0	-0.27916	0	0	0	0	-0.095873	0
1.440625	0	0	0	0	0	0	82.124413	364.640717	-14.248022	0.685667	0	-0.279094	0	0	0	0	-0.151884	0
1.441667	0	0	0	0	0	0	80.585342	354.981506	-14.087651	0.684434	0	-0.279037	0	0	0	0	-0.198482	0
1.442708	0	0	0	0	0	0	79.027931	345.428406	-13.911904	0.68322	0	-0.278988	0	0	0	0	-0.237929	0
1.44375	0	0	0	0	0	0	77.45714599999999	335.98877	-13.718777	0.682025	0	-0.278943	0	0	0	0	-0.272669	0
1.444792	0	0	0	0	0	0	75.877731	326.669739	-13.50625	0.680851	0	-0.278901	0	0	0	0	-0.305255	0
1.445833	0	0	0	0	0	0	74.29420500000001	317.478058	-13.272378	0.6797	0	-0.278858	0	0	0	0	-0.338274	0
1.446875	0	0	0	0	0	0	72.710815	308.4198	-13.015363	0.678575	0	-0.278811	0	0	0	0	-0.374271	0
1.447917	0	0	0	0	0	0	71.131546	299.500519	-12.73363	0.677477	0	-0.278756	0	0	0	0	-0.415676	0
1.448958	0	0	0	0	0	0	69.560104	290.724884	-12.425899	0.67641	0	-0.27869	0	0	0	0	-0.464736	0
1.45	0	0	0	0	0	0	67.999908	282.096893	-12.091239	0.675376	0	-0.278611	0	0	0	0	-0.523451	0
1.451042	0	0	0	0	0	0	66.45410200000001	273.619568	-11.729118	0.674376	0	-0.278514	0	0	0	0	-0.593517	0
1.452083	0	0	0	0	0	0	64.925484	265.295227	-11.339444	0.673414	0	-0.278397	0	0	0	0	-0.67628	0
1.453125	0	0	0	0	0	0	63.416542	257.125336	-10.922588	0.67249	0	-0.278256	0	0	0	0	-0.772697	0
1.454167	0	0	0	0	0	0	61.929405	249.110519	-10.4794	0.671607	0	-0.27809	0	0	0	0	-0.883309	0
1.455208	0	0	0	0	0	0	60.465813	241.250763	-10.011206	0.670764	0	-0.277897	0	0	0	0	-1.008225	0
1.45625	0	0	0	0	0	0	59.027107	233.545395	-9.519799000000001	0.6699619999999999	0	-0.277674	0	0	0	0	-1.147118	0
1.457292	0	0	0	0	0	0	57.614201	225.993118	-9.007419000000001	0.6692	0	-0.277421	0	0	0	0	-1.29923	0
1.458333	0	0	0	0	0	0	56.227577	218.592194	-8.476709	0.668478	0	-0.277136	0	0	0	0	-1.463389	0
1.459375	0	0	0	0	0	0	54.86731	211.340485	-7.930676	0.667793	0	-0.27682	0	0	0	0	-1.638041	0
1.460417	0	0	0	0	0	0	53.533066	204.235519	-7.372634	0.667143	0	-0.276473	0	0	0	0	-1.821283	0
1.461458	0	0	0	0	0	0	52.224159	197.274689	-6.806141	0.666527	0	-0.276096	0	0	0	0	-2.010913	0
1.4625	0	0	0	0	0	0	50.939613	190.4552	-6.234933	0.665942	0	-0.27569	0	0	0	0	-2.204481	0
1.463542	0	0	0	0	0	0	49.678215	183.774277	-5.662848	0.665385	0	-0.275257	0	0	0	0	-2.39935	0
1.464583	0	0	0	0	0	0	48.438622	177.229218	-5.093756	0.664853	0	-0.274799	0	0	0	0	-2.592762	0
1.465625	0	0	0	0	0	0	47.219429	170.817429	-4.531477	0.664345	0	-0.274319	0	0	0	0	-2.781901	0
1.466667	0	0	0	0	0	0	46.019268	164.536575	-3.979715	0.663859	0	-0.273819	0	0	0	0	-2.963963	0
1.467708	0	0	0	0	0	0	44.836876	158.384567	-3.441983	0.663392	0	-0.273303	0	0	0	0	-3.136222	0
1.46875	0	0	0	0	0	0	43.671162	152.359695	-2.921539	0.6629429999999999	0	-0.272772	0	0	0	0	-3.296098	0
1.469792	0	0	0	0	0	0	42.521263	146.460602	-2.421331	0.662512	0	-0.272231	0	0	0	0	-3.441214	0
1.470833	0	0	0	0	0	0	41.386551	140.686401	-1.943939	0.662098	0	-0.27168	0	0	0	0	-3.569455	0
1.471875	0	0	0	0	0	0	40.266647	135.036652	-1.491541	0.6617	0	-0.271123	0	0	0	0	-3.679019	0
1.472917	0	0	0	0	0	0	39.1614	129.511398	-1.065877	0.661318	0	-0.270562	0	0	0	0	-3.768453	0
1.473958	0	0	0	0	0	0	38.070843	124.111191	-0.66823	0.660952	0	-0.269996	0	0	0	0	-3.836694	0
1.475	0	0	0	0	0	0	36.995159	118.837044	-0.299414	0.660602	0	-0.269426	0	0	0	0	-3.883088	0
1.476042	0	0	0	0	0	0	35.934612	113.690422	0.040225	0.66027	0	-0.268852	0	0	0	0	-3.907408	0
1.477083	0	0	0	0	0	0	34.889507	108.673187	0.350796	0.659957	0	-0.268273	0	0	0	0	-3.909855	0
1.478125	0	0	0	0	0	0	33.86013	103.78756	0.632847	0.659663	0	-0.267685	0	0	0	0	-3.89106	0
1.479167	0	0	0	0	0	0	32.846725	99.035988	0.887328	0.6593909999999999	0	-0.267086	0	0	0	0	-3.852063	0
1.480208	0	0	0	0	0	0	31.849459	94.421104	1.115562	0.659143	0	-0.26647	0	0	0	0	-3.794294	0
1.48125	0	0	0	0	0	0	30.86841	89.945564	1.319189	0.658925	0	-0.265832	0	0	0	0	-3.719539	0
1.482292	0	0	0	0	0	0	29.90358	85.611977	1.500123	0.65874	0	-0.265166	0	0	0	0	-3.629901	0
1.483333	0	0	0	0	0	0	28.954897	81.422752	1.660491	0.658594	0	-0.264464	0	0	0	0	-3.527756	0
1.484375	0	0	0	0	0	0	28.022236	77.38003500000001	1.802581	0.658494	0	-0.263716	0	0	0	0	-3.4157	0
